<?xml version="1.0" encoding="UTF-8"?>
<svg xmlns="http://www.w3.org/2000/svg" xmlns:xlink="http://www.w3.org/1999/xlink" width="313.48pt" height="125.8pt" viewBox="0 0 313.48 125.8" version="1.1">
<defs>
<clipPath id="clip1">
  <path d="M 0 62 L 313.480469 62 L 313.480469 125.800781 L 0 125.800781 Z M 0 62 "/>
</clipPath>
</defs>
<g id="surface1">
<g clip-path="url(#clip1)" clip-rule="nonzero">
<path style=" stroke:none;fill-rule:nonzero;fill:rgb(32.199097%,62.69989%,83.099365%);fill-opacity:1;" d="M 0 125.800781 C 162.597656 43.597656 313.480469 84.660156 313.480469 84.660156 C 154.066406 17.589844 0 125.800781 0 125.800781 "/>
</g>
<path style=" stroke:none;fill-rule:nonzero;fill:rgb(13.699341%,12.199402%,12.5%);fill-opacity:1;" d="M 20.519531 54.074219 L 21.199219 54.074219 L 21.199219 28.175781 L 41.984375 28.175781 L 41.984375 23.425781 L 21.199219 23.425781 L 21.199219 4.761719 L 44.230469 4.761719 L 44.230469 0.00390625 L 15.746094 0.00390625 L 15.746094 54.074219 L 20.519531 54.074219 "/>
<path style=" stroke:none;fill-rule:nonzero;fill:rgb(13.699341%,12.199402%,12.5%);fill-opacity:1;" d="M 63.882813 54.773438 C 69.074219 54.773438 73.453125 53.253906 77.671875 49.988281 L 77.933594 49.792969 L 77.933594 43.859375 L 76.828125 44.757813 C 72.417969 48.320313 68.804688 49.792969 64.34375 49.792969 C 60.542969 49.792969 56.902344 48.136719 54.359375 45.265625 C 51.972656 42.570313 50.851563 39.097656 51.140625 35.449219 L 78.550781 35.449219 L 78.550781 34.769531 C 78.550781 22.785156 70.222656 17.320313 62.492188 17.320313 C 52.867188 17.320313 45.886719 25.011719 45.886719 35.617188 C 45.886719 46.714844 53.457031 54.773438 63.882813 54.773438 Z M 62.492188 22.3125 C 67.9375 22.3125 71.253906 25.183594 72.625 31.082031 L 51.835938 31.082031 C 53.261719 25.648438 57.28125 22.3125 62.492188 22.3125 "/>
<path style=" stroke:none;fill-rule:nonzero;fill:rgb(13.699341%,12.199402%,12.5%);fill-opacity:1;" d="M 100.132813 54.773438 C 105.328125 54.773438 109.703125 53.253906 113.921875 49.988281 L 114.1875 49.792969 L 114.1875 43.859375 L 113.078125 44.757813 C 108.671875 48.320313 105.054688 49.792969 100.59375 49.792969 C 96.796875 49.792969 93.148438 48.136719 90.605469 45.265625 C 88.21875 42.570313 87.101563 39.097656 87.390625 35.449219 L 114.804688 35.449219 L 114.804688 34.769531 C 114.804688 22.785156 106.476563 17.320313 98.746094 17.320313 C 89.125 17.320313 82.144531 25.011719 82.144531 35.617188 C 82.144531 46.714844 89.710938 54.773438 100.132813 54.773438 Z M 98.746094 22.3125 C 104.191406 22.3125 107.507813 25.183594 108.875 31.082031 L 88.089844 31.082031 C 89.515625 25.648438 93.53125 22.3125 98.746094 22.3125 "/>
<path style=" stroke:none;fill-rule:nonzero;fill:rgb(13.699341%,12.199402%,12.5%);fill-opacity:1;" d="M 136.695313 54.773438 C 140.390625 54.773438 143.035156 54.003906 146.300781 51.945313 L 146.300781 54.074219 L 151.367188 54.074219 L 151.367188 0.00390625 L 146.300781 0.00390625 L 146.300781 19.710938 C 142.488281 17.921875 140.023438 17.320313 136.695313 17.320313 C 126.132813 17.320313 118.472656 25.183594 118.472656 36.007813 C 118.472656 46.53125 126.476563 54.773438 136.695313 54.773438 Z M 146.300781 46.917969 C 143.046875 49.070313 140.882813 49.792969 137.625 49.792969 C 129.59375 49.792969 123.765625 43.894531 123.765625 35.777344 C 123.765625 27.847656 129.144531 22.3125 136.847656 22.3125 C 140.28125 22.3125 142.800781 23.089844 146.300781 25.257813 L 146.300781 46.917969 "/>
<path style=" stroke:none;fill-rule:nonzero;fill:rgb(13.699341%,12.199402%,12.5%);fill-opacity:1;" d="M 171.710938 54.773438 C 183.910156 54.773438 191.789063 46.980469 191.789063 34.925781 C 191.789063 24.558594 185.152344 17.320313 175.652344 17.320313 C 170.410156 17.320313 167.089844 19.117188 163.808594 22.074219 L 163.808594 0.00390625 L 158.742188 0.00390625 L 158.742188 51.925781 L 159.167969 52.097656 C 164.0625 54.023438 167.578125 54.773438 171.710938 54.773438 Z M 163.808594 28.078125 C 167.8125 23.605469 171.128906 21.765625 175.183594 21.765625 C 181.742188 21.765625 186.496094 27.394531 186.496094 35.152344 C 186.496094 43.628906 180.238281 49.792969 171.636719 49.792969 C 169.007813 49.792969 166.511719 49.332031 163.808594 48.359375 L 163.808594 28.078125 "/>
<path style=" stroke:none;fill-rule:nonzero;fill:rgb(13.699341%,12.199402%,12.5%);fill-opacity:1;" d="M 195.382813 45.285156 C 195.382813 50.609375 199.789063 54.773438 205.414063 54.773438 C 208.953125 54.773438 212.1875 53.597656 215.761719 51.015625 C 216.042969 53.375 216.609375 54.773438 218.785156 54.773438 C 220.371094 54.773438 221.929688 54.246094 225.605469 51.46875 L 226.226563 51.007813 L 226.496094 50.800781 L 226.496094 45.964844 L 225.398438 46.839844 C 221.789063 49.695313 220.953125 49.792969 220.871094 49.792969 C 220.84375 49.792969 220.828125 49.78125 220.816406 49.78125 C 220.777344 49.707031 220.699219 49.457031 220.699219 48.683594 L 220.699219 27.039063 C 220.699219 19.875 214.761719 17.320313 209.199219 17.320313 C 205.3125 17.320313 202.070313 18.386719 197.632813 21.128906 L 197.308594 21.335938 L 197.308594 26.851563 L 198.402344 26.03125 C 202.628906 22.84375 205.203125 21.765625 208.582031 21.765625 C 213.324219 21.765625 215.632813 23.867188 215.632813 28.207031 L 215.632813 31.964844 C 207.777344 32.414063 195.382813 34.789063 195.382813 45.285156 Z M 215.632813 46.207031 C 212.277344 49.160156 209.738281 50.324219 206.648438 50.324219 C 203.117188 50.324219 200.445313 48.164063 200.445313 45.285156 C 200.445313 43.4375 201.203125 41.769531 202.707031 40.335938 C 205.441406 37.714844 210.234375 36.253906 215.632813 36.359375 L 215.632813 46.207031 "/>
<path style=" stroke:none;fill-rule:nonzero;fill:rgb(13.699341%,12.199402%,12.5%);fill-opacity:1;" d="M 245.757813 54.773438 C 249.078125 54.773438 251.570313 54.308594 255.636719 52.960938 L 256.105469 52.804688 L 256.105469 47.457031 L 255.167969 47.828125 C 251.460938 49.308594 249.246094 49.792969 246.0625 49.792969 C 238.234375 49.792969 233.378906 44.5625 233.378906 36.167969 C 233.378906 27.871094 238.351563 22.3125 245.757813 22.3125 C 248.664063 22.3125 250.714844 22.800781 254.539063 24.417969 L 255.480469 24.8125 L 255.480469 19.203125 L 255.011719 19.058594 C 250.964844 17.761719 248.59375 17.320313 245.609375 17.320313 C 235.285156 17.320313 228.078125 25.21875 228.078125 36.550781 C 228.078125 47.449219 235.1875 54.773438 245.757813 54.773438 "/>
<path style=" stroke:none;fill-rule:nonzero;fill:rgb(13.699341%,12.199402%,12.5%);fill-opacity:1;" d="M 265.238281 54.074219 L 265.921875 54.074219 L 265.921875 36.148438 L 287.21875 53.921875 L 287.40625 54.074219 L 294.632813 54.074219 L 293.191406 52.882813 L 271.847656 35.148438 L 290.261719 19.203125 L 291.632813 18.015625 L 284.703125 18.015625 L 284.507813 18.175781 L 265.921875 34.148438 L 265.921875 0.00390625 L 260.851563 0.00390625 L 260.851563 54.074219 L 265.238281 54.074219 "/>
</g>
</svg>
